<?plantuml 1.2026.1?><svg xmlns="http://www.w3.org/2000/svg" xmlns:xlink="http://www.w3.org/1999/xlink" contentStyleType="text/css" data-diagram-type="SEQUENCE" height="767px" preserveAspectRatio="none" style="width:1103px;height:767px;background:#24273A;" version="1.1" viewBox="0 0 1103 767" width="1103px" zoomAndPan="magnify"><defs/><g><rect fill="#24273A" height="767" style="stroke:none;stroke-width:1;" width="1103" x="0" y="0"/><g><title>anim_cli</title><rect fill="#B7BDF8" height="556.4418" style="stroke:#181818;stroke-width:1;" width="10" x="307.8023" y="112.6802"/></g><g><title>anim_parser</title><rect fill="#B7BDF8" height="72.6802" style="stroke:#181818;stroke-width:1;" width="10" x="579.4042" y="186.3604"/></g><g><title>anim_timeline</title><rect fill="#B7BDF8" height="174.2006" style="stroke:#181818;stroke-width:1;" width="10" x="786.2056" y="332.7209"/></g><g><title>anim_bevy</title><rect fill="#B7BDF8" height="88.5203" style="stroke:#181818;stroke-width:1;" width="10" x="985.8069" y="580.6017"/></g><g class="participant-lifeline" data-entity-uid="part1" data-qualified-name="User" id="part1-lifeline"><g><title>User</title><rect fill="#000000" fill-opacity="0.00000" height="606.2819" width="8" x="18.4001" y="80.8401"/><line style="stroke:#B7BDF8;stroke-width:0.5;stroke-dasharray:5,5;" x1="22" x2="22" y1="80.8401" y2="687.122"/></g></g><g class="participant-lifeline" data-entity-uid="part2" data-qualified-name="CLI" id="part2-lifeline"><g><title>anim_cli</title><rect fill="#000000" fill-opacity="0.00000" height="606.2819" width="8" x="308.8023" y="80.8401"/><line style="stroke:#B7BDF8;stroke-width:0.5;stroke-dasharray:5,5;" x1="312.002" x2="312.002" y1="80.8401" y2="687.122"/></g></g><g class="participant-lifeline" data-entity-uid="part3" data-qualified-name="Parser" id="part3-lifeline"><g><title>anim_parser</title><rect fill="#000000" fill-opacity="0.00000" height="606.2819" width="8" x="580.4042" y="80.8401"/><line style="stroke:#B7BDF8;stroke-width:0.5;stroke-dasharray:5,5;" x1="583.8039" x2="583.8039" y1="80.8401" y2="687.122"/></g></g><g class="participant-lifeline" data-entity-uid="part4" data-qualified-name="Compiler" id="part4-lifeline"><g><title>anim_timeline</title><rect fill="#000000" fill-opacity="0.00000" height="606.2819" width="8" x="787.2056" y="80.8401"/><line style="stroke:#B7BDF8;stroke-width:0.5;stroke-dasharray:5,5;" x1="790.4052" x2="790.4052" y1="80.8401" y2="687.122"/></g></g><g class="participant-lifeline" data-entity-uid="part5" data-qualified-name="Runtime" id="part5-lifeline"><g><title>anim_bevy</title><rect fill="#000000" fill-opacity="0.00000" height="606.2819" width="8" x="986.8069" y="80.8401"/><line style="stroke:#B7BDF8;stroke-width:0.5;stroke-dasharray:5,5;" x1="990.4067" x2="990.4067" y1="80.8401" y2="687.122"/></g></g><g class="participant participant-head" data-entity-uid="part1" data-qualified-name="User" id="part1-head"><text fill="#CAD3F5" font-family="JetBrainsMono NF" font-size="12" lengthAdjust="spacing" textLength="28.8002" x="5" y="77.2401">User</text><ellipse cx="22.4001" cy="13.5" fill="#363A4F" rx="8" ry="8" style="stroke:#B7BDF8;stroke-width:0.5;"/><path d="M22.4001,21.5 L22.4001,48.5 M9.4001,29.5 L35.4001,29.5 M22.4001,48.5 L9.4001,63.5 M22.4001,48.5 L35.4001,63.5" fill="none" style="stroke:#B7BDF8;stroke-width:0.5;"/></g><g class="participant participant-tail" data-entity-uid="part1" data-qualified-name="User" id="part1-tail"><text fill="#CAD3F5" font-family="JetBrainsMono NF" font-size="12" lengthAdjust="spacing" textLength="28.8002" x="5" y="698.3621">User</text><ellipse cx="22.4001" cy="710.4621" fill="#363A4F" rx="8" ry="8" style="stroke:#B7BDF8;stroke-width:0.5;"/><path d="M22.4001,718.4621 L22.4001,745.4621 M9.4001,726.4621 L35.4001,726.4621 M22.4001,745.4621 L9.4001,760.4621 M22.4001,745.4621 L35.4001,760.4621" fill="none" style="stroke:#B7BDF8;stroke-width:0.5;"/></g><g class="participant participant-head" data-entity-uid="part2" data-qualified-name="CLI" id="part2-head"><rect fill="#363A4F" height="29.8401" rx="1.5" ry="1.5" style="stroke:#B7BDF8;stroke-width:0.5;" width="71.6005" x="277.002" y="50"/><text fill="#CAD3F5" font-family="JetBrainsMono NF" font-size="12" lengthAdjust="spacing" textLength="57.6005" x="284.002" y="69.2401">anim_cli</text></g><g class="participant participant-tail" data-entity-uid="part2" data-qualified-name="CLI" id="part2-tail"><rect fill="#363A4F" height="29.8401" rx="1.5" ry="1.5" style="stroke:#B7BDF8;stroke-width:0.5;" width="71.6005" x="277.002" y="686.122"/><text fill="#CAD3F5" font-family="JetBrainsMono NF" font-size="12" lengthAdjust="spacing" textLength="57.6005" x="284.002" y="705.3621">anim_cli</text></g><g class="participant participant-head" data-entity-uid="part3" data-qualified-name="Parser" id="part3-head"><rect fill="#363A4F" height="29.8401" rx="1.5" ry="1.5" style="stroke:#B7BDF8;stroke-width:0.5;" width="93.2006" x="537.8039" y="50"/><text fill="#CAD3F5" font-family="JetBrainsMono NF" font-size="12" lengthAdjust="spacing" textLength="79.2006" x="544.8039" y="69.2401">anim_parser</text></g><g class="participant participant-tail" data-entity-uid="part3" data-qualified-name="Parser" id="part3-tail"><rect fill="#363A4F" height="29.8401" rx="1.5" ry="1.5" style="stroke:#B7BDF8;stroke-width:0.5;" width="93.2006" x="537.8039" y="686.122"/><text fill="#CAD3F5" font-family="JetBrainsMono NF" font-size="12" lengthAdjust="spacing" textLength="79.2006" x="544.8039" y="705.3621">anim_parser</text></g><g class="participant participant-head" data-entity-uid="part4" data-qualified-name="Compiler" id="part4-head"><rect fill="#363A4F" height="29.8401" rx="1.5" ry="1.5" style="stroke:#B7BDF8;stroke-width:0.5;" width="107.6008" x="737.4052" y="50"/><text fill="#CAD3F5" font-family="JetBrainsMono NF" font-size="12" lengthAdjust="spacing" textLength="93.6008" x="744.4052" y="69.2401">anim_timeline</text></g><g class="participant participant-tail" data-entity-uid="part4" data-qualified-name="Compiler" id="part4-tail"><rect fill="#363A4F" height="29.8401" rx="1.5" ry="1.5" style="stroke:#B7BDF8;stroke-width:0.5;" width="107.6008" x="737.4052" y="686.122"/><text fill="#CAD3F5" font-family="JetBrainsMono NF" font-size="12" lengthAdjust="spacing" textLength="93.6008" x="744.4052" y="705.3621">anim_timeline</text></g><g class="participant participant-head" data-entity-uid="part5" data-qualified-name="Runtime" id="part5-head"><rect fill="#363A4F" height="29.8401" rx="1.5" ry="1.5" style="stroke:#B7BDF8;stroke-width:0.5;" width="78.8005" x="951.4067" y="50"/><text fill="#CAD3F5" font-family="JetBrainsMono NF" font-size="12" lengthAdjust="spacing" textLength="64.8005" x="958.4067" y="69.2401">anim_bevy</text></g><g class="participant participant-tail" data-entity-uid="part5" data-qualified-name="Runtime" id="part5-tail"><rect fill="#363A4F" height="29.8401" rx="1.5" ry="1.5" style="stroke:#B7BDF8;stroke-width:0.5;" width="78.8005" x="951.4067" y="686.122"/><text fill="#CAD3F5" font-family="JetBrainsMono NF" font-size="12" lengthAdjust="spacing" textLength="64.8005" x="958.4067" y="705.3621">anim_bevy</text></g><g><title>anim_cli</title><rect fill="#B7BDF8" height="556.4418" style="stroke:#181818;stroke-width:1;" width="10" x="307.8023" y="112.6802"/></g><g><title>anim_parser</title><rect fill="#B7BDF8" height="72.6802" style="stroke:#181818;stroke-width:1;" width="10" x="579.4042" y="186.3604"/></g><g><title>anim_timeline</title><rect fill="#B7BDF8" height="174.2006" style="stroke:#181818;stroke-width:1;" width="10" x="786.2056" y="332.7209"/></g><g><title>anim_bevy</title><rect fill="#B7BDF8" height="88.5203" style="stroke:#181818;stroke-width:1;" width="10" x="985.8069" y="580.6017"/></g><g class="message" data-entity-1="part1" data-entity-2="part2" id="msg1"><polygon fill="#F5BDE6" points="295.8023,108.6802,305.8023,112.6802,295.8023,116.6802,299.8023,112.6802" style="stroke:#F5BDE6;stroke-width:1;"/><line style="stroke:#F5BDE6;stroke-width:1;" x1="22.4001" x2="301.8023" y1="112.6802" y2="112.6802"/><text fill="#CAD3F5" font-family="JetBrainsMono NF" font-size="12" lengthAdjust="spacing" textLength="266.4022" x="29.4001" y="107.0802">anim -s pathToScript -m pathTo3dModel</text></g><rect fill="#363A4F" height="3" rx="1.5" ry="1.5" style="stroke:#363A4F;stroke-width:1;" width="1096.8075" x="0" y="141.6003"/><line style="stroke:#CAD3F5;stroke-width:1;" x1="0" x2="1096.8075" y1="141.6003" y2="141.6003"/><line style="stroke:#CAD3F5;stroke-width:1;" x1="0" x2="1096.8075" y1="144.6003" y2="144.6003"/><rect fill="#363A4F" height="23.8401" rx="1.5" ry="1.5" style="stroke:#CAD3F5;stroke-width:2;" width="129.2009" x="483.8033" y="130.6802"/><text fill="#CAD3F5" font-family="JetBrainsMono NF" font-size="12" font-weight="bold" lengthAdjust="spacing" textLength="108.0009" x="489.8033" y="146.9203">STEP 1: PARSING</text><g class="message" data-entity-1="part2" data-entity-2="part3" id="msg2"><polygon fill="#F5BDE6" points="567.4042,182.3604,577.4042,186.3604,567.4042,190.3604,571.4042,186.3604" style="stroke:#F5BDE6;stroke-width:1;"/><line style="stroke:#F5BDE6;stroke-width:1;" x1="317.8023" x2="573.4042" y1="186.3604" y2="186.3604"/><text fill="#CAD3F5" font-family="JetBrainsMono NF" font-size="12" lengthAdjust="spacing" textLength="180.0014" x="324.8023" y="180.7604">build_ast(script_content)</text></g><g class="message" data-entity-1="part3" data-entity-2="part3" id="msg3"><line style="stroke:#F5BDE6;stroke-width:1;" x1="589.4042" x2="631.4042" y1="216.2006" y2="216.2006"/><line style="stroke:#F5BDE6;stroke-width:1;" x1="631.4042" x2="631.4042" y1="216.2006" y2="229.2006"/><line style="stroke:#F5BDE6;stroke-width:1;" x1="590.4042" x2="631.4042" y1="229.2006" y2="229.2006"/><polygon fill="#F5BDE6" points="600.4042,225.2006,590.4042,229.2006,600.4042,233.2006,596.4042,229.2006" style="stroke:#F5BDE6;stroke-width:1;"/><text fill="#CAD3F5" font-family="JetBrainsMono NF" font-size="12" lengthAdjust="spacing" textLength="172.8014" x="596.4042" y="210.6005">Pest Tokenize &amp; Validate</text></g><g class="message" data-entity-1="part3" data-entity-2="part2" id="msg4"><polygon fill="#F5BDE6" points="328.8023,255.0407,318.8023,259.0407,328.8023,263.0407,324.8023,259.0407" style="stroke:#F5BDE6;stroke-width:1;"/><line style="stroke:#F5BDE6;stroke-width:1;stroke-dasharray:2,2;" x1="322.8023" x2="583.4042" y1="259.0407" y2="259.0407"/><text fill="#CAD3F5" font-family="JetBrainsMono NF" font-size="12" lengthAdjust="spacing" textLength="237.6019" x="334.8023" y="253.4406">return Abstract Syntax Tree (AST)</text></g><rect fill="#363A4F" height="3" rx="1.5" ry="1.5" style="stroke:#363A4F;stroke-width:1;" width="1096.8075" x="0" y="287.9607"/><line style="stroke:#CAD3F5;stroke-width:1;" x1="0" x2="1096.8075" y1="287.9607" y2="287.9607"/><line style="stroke:#CAD3F5;stroke-width:1;" x1="0" x2="1096.8075" y1="290.9607" y2="290.9607"/><rect fill="#363A4F" height="23.8401" rx="1.5" ry="1.5" style="stroke:#CAD3F5;stroke-width:2;" width="158.0012" x="469.4032" y="277.0407"/><text fill="#CAD3F5" font-family="JetBrainsMono NF" font-size="12" font-weight="bold" lengthAdjust="spacing" textLength="136.8011" x="475.4032" y="293.2808">STEP 2: COMPILATION</text><g class="message" data-entity-1="part2" data-entity-2="part4" id="msg5"><polygon fill="#F5BDE6" points="774.2056,328.7209,784.2056,332.7209,774.2056,336.7209,778.2056,332.7209" style="stroke:#F5BDE6;stroke-width:1;"/><line style="stroke:#F5BDE6;stroke-width:1;" x1="317.8023" x2="780.2056" y1="332.7209" y2="332.7209"/><text fill="#CAD3F5" font-family="JetBrainsMono NF" font-size="12" lengthAdjust="spacing" textLength="86.4007" x="324.8023" y="327.1209">compile(ast)</text></g><g class="message" data-entity-1="part4" data-entity-2="part4" id="msg6"><line style="stroke:#F5BDE6;stroke-width:1;" x1="796.2056" x2="838.2056" y1="378.4011" y2="378.4011"/><line style="stroke:#F5BDE6;stroke-width:1;" x1="838.2056" x2="838.2056" y1="378.4011" y2="391.4011"/><line style="stroke:#F5BDE6;stroke-width:1;" x1="797.2056" x2="838.2056" y1="391.4011" y2="391.4011"/><polygon fill="#F5BDE6" points="807.2056,387.4011,797.2056,391.4011,807.2056,395.4011,803.2056,391.4011" style="stroke:#F5BDE6;stroke-width:1;"/><text fill="#CAD3F5" font-family="JetBrainsMono NF" font-size="12" lengthAdjust="spacing" textLength="136.8011" x="803.2056" y="356.961">Semantic Validation</text><text fill="#CAD3F5" font-family="JetBrainsMono NF" font-size="12" lengthAdjust="spacing" textLength="151.2012" x="803.2056" y="372.8011">(Bones, Angles, Time)</text></g><g class="message" data-entity-1="part4" data-entity-2="part4" id="msg7"><line style="stroke:#F5BDE6;stroke-width:1;" x1="796.2056" x2="838.2056" y1="421.2412" y2="421.2412"/><line style="stroke:#F5BDE6;stroke-width:1;" x1="838.2056" x2="838.2056" y1="421.2412" y2="434.2412"/><line style="stroke:#F5BDE6;stroke-width:1;" x1="797.2056" x2="838.2056" y1="434.2412" y2="434.2412"/><polygon fill="#F5BDE6" points="807.2056,430.2412,797.2056,434.2412,807.2056,438.2412,803.2056,434.2412" style="stroke:#F5BDE6;stroke-width:1;"/><text fill="#CAD3F5" font-family="JetBrainsMono NF" font-size="12" lengthAdjust="spacing" textLength="165.6013" x="803.2056" y="415.6412">Resolve calls &amp; Flatten</text></g><g class="message" data-entity-1="part4" data-entity-2="part4" id="msg8"><line style="stroke:#F5BDE6;stroke-width:1;" x1="796.2056" x2="838.2056" y1="464.0813" y2="464.0813"/><line style="stroke:#F5BDE6;stroke-width:1;" x1="838.2056" x2="838.2056" y1="464.0813" y2="477.0813"/><line style="stroke:#F5BDE6;stroke-width:1;" x1="797.2056" x2="838.2056" y1="477.0813" y2="477.0813"/><polygon fill="#F5BDE6" points="807.2056,473.0813,797.2056,477.0813,807.2056,481.0813,803.2056,477.0813" style="stroke:#F5BDE6;stroke-width:1;"/><text fill="#CAD3F5" font-family="JetBrainsMono NF" font-size="12" lengthAdjust="spacing" textLength="136.8011" x="803.2056" y="458.4813">Euler -&gt; Quaternion</text></g><g class="message" data-entity-1="part4" data-entity-2="part2" id="msg9"><polygon fill="#F5BDE6" points="328.8023,502.9214,318.8023,506.9214,328.8023,510.9214,324.8023,506.9214" style="stroke:#F5BDE6;stroke-width:1;"/><line style="stroke:#F5BDE6;stroke-width:1;stroke-dasharray:2,2;" x1="322.8023" x2="790.2056" y1="506.9214" y2="506.9214"/><text fill="#CAD3F5" font-family="JetBrainsMono NF" font-size="12" lengthAdjust="spacing" textLength="108.0009" x="334.8023" y="501.3214">return Timeline</text></g><rect fill="#363A4F" height="3" rx="1.5" ry="1.5" style="stroke:#363A4F;stroke-width:1;" width="1096.8075" x="0" y="535.8415"/><line style="stroke:#CAD3F5;stroke-width:1;" x1="0" x2="1096.8075" y1="535.8415" y2="535.8415"/><line style="stroke:#CAD3F5;stroke-width:1;" x1="0" x2="1096.8075" y1="538.8415" y2="538.8415"/><rect fill="#363A4F" height="23.8401" rx="1.5" ry="1.5" style="stroke:#CAD3F5;stroke-width:2;" width="165.2012" x="465.8031" y="524.9214"/><text fill="#CAD3F5" font-family="JetBrainsMono NF" font-size="12" font-weight="bold" lengthAdjust="spacing" textLength="144.0012" x="471.8031" y="541.1615">STEP 3: BEVY RUNTIME</text><g class="message" data-entity-1="part2" data-entity-2="part5" id="msg10"><polygon fill="#F5BDE6" points="973.8069,576.6017,983.8069,580.6017,973.8069,584.6017,977.8069,580.6017" style="stroke:#F5BDE6;stroke-width:1;"/><line style="stroke:#F5BDE6;stroke-width:1;" x1="317.8023" x2="979.8069" y1="580.6017" y2="580.6017"/><text fill="#CAD3F5" font-family="JetBrainsMono NF" font-size="12" lengthAdjust="spacing" textLength="165.6013" x="324.8023" y="575.0016">run_animation(timeline)</text></g><g class="message" data-entity-1="part5" data-entity-2="part5" id="msg11"><line style="stroke:#F5BDE6;stroke-width:1;" x1="995.8069" x2="1037.8069" y1="626.2819" y2="626.2819"/><line style="stroke:#F5BDE6;stroke-width:1;" x1="1037.8069" x2="1037.8069" y1="626.2819" y2="639.2819"/><line style="stroke:#F5BDE6;stroke-width:1;" x1="996.8069" x2="1037.8069" y1="639.2819" y2="639.2819"/><polygon fill="#F5BDE6" points="1006.8069,635.2819,996.8069,639.2819,1006.8069,643.2819,1002.8069,639.2819" style="stroke:#F5BDE6;stroke-width:1;"/><text fill="#CAD3F5" font-family="JetBrainsMono NF" font-size="12" font-weight="bold" lengthAdjust="spacing" textLength="72.0006" x="1002.8069" y="604.8417">Setup bevy</text><text fill="#CAD3F5" font-family="JetBrainsMono NF" font-size="12" lengthAdjust="spacing" textLength="64.8005" x="1002.8069" y="620.6819">Load GLTF</text></g><g class="message" data-entity-1="part5" data-entity-2="part1" id="msg12"><polygon fill="#F5BDE6" points="33.4001,665.122,23.4001,669.122,33.4001,673.122,29.4001,669.122" style="stroke:#F5BDE6;stroke-width:1;"/><line style="stroke:#F5BDE6;stroke-width:1;stroke-dasharray:2,2;" x1="27.4001" x2="989.8069" y1="669.122" y2="669.122"/><text fill="#CAD3F5" font-family="JetBrainsMono NF" font-size="12" lengthAdjust="spacing" textLength="158.4013" x="39.4001" y="663.522">Result: Animated dummy</text></g><?plantuml-src VLDTZzem47pthzXUfGfG0shleHKIbU0A9ohWA0adLJe96MTxMEUFABPfwQ_l9YIGGxHvYUtCpEwCDs-a4Iga23llCzVlzNB-g_ii_IviWyDSMEFH-AwmkcU4TPv7KlG4zraMX90cqbo8dUJUHfdYnWUj8hz3ZJtDfUcLosv6fuov5saoddCDAVxaGVa9QI-uHlY6VfGJtCsjiR2O06DSU9l3cZfWnF5Io8pKuOORgJT2oHlW3kvcqojVwOHe9M1PBgzWlDIefC6ZZDMPL5TnMzmVIimgc8B3MD4IH5-Asj270WIHWupxNM9ZaSlCGwIh_MqwjocgmepSSuybwUteq-Zhv3DZWm74oNW97_gm7AxYwU8U1WF62Wpf7rkd4jiWLRhXphTSAR-fhgHzbgsmjNArROeiqNb8x0iQ-GVX7Jno9LEYCg2dnfzSvUX3Rc2uTJwd8X0VZEU_8SaHeJMCapPByQBusSx7Fjmzp9VJsJ2PFYoQbkgSgO8uBbjag-7Z1AYTd0vUisFKT4LIr3QaDK-cDR86tNiOccTLl1EwhdRfxnygAtHMxH44LyfH9XF5FGNxFyeuL6VV0_MR6ofy0R_CCAa6hPdOQTvEcTtsOJH-_06hzIAPpiVDqAh1AnI3sHJpLlfjrHFSYA-6rkdL-rSgdKvCdMLGJ7QdysHcbgTmFqicx8mdmjhL6T6FsgTGYxgOGXgqFZJDd7wCfi7Pz2y0?></g></svg>